<?xml version="1.0" standalone="yes"?>
<!DOCTYPE svg PUBLIC "-//W3C//DTD SVG 20010904//EN" "http://www.w3.org/TR/2001/REC-SVG-20010904/DTD/svg10.dtd">
<svg xmlns="http://www.w3.org/2000/svg" version="1.0" width="144.000000pt" height="144.000000pt" viewBox="0 0 144.000000 144.000000" preserveAspectRatio="xMidYMid meet" style="zoom: 1;"><defs id="svg_document_defs"><style id="Noto Sans_Google_Webfont_import">@import url(https://fonts.googleapis.com/css?family=Noto+Sans);</style></defs><g transform="translate(0.000000,144.000000) scale(0.100000,-0.100000)" fill="#000000" stroke="none"><path d="M65 1431 c-11 -5 -29 -19 -40 -31 -20 -22 -20 -36 -20 -681 l0 -659 28 -27 27 -28 660 0 660 0 27 28 28 27 0 660 0 660 -28 27 -27 28 -648 2 c-356 1 -656 -2 -667 -6z m1305 -526 l0 -475 -655 0 -655 0 0 475 0 475 655 0 655 0 0 -475z"></path></g><text stroke="none" style="outline-style: none;" id="text1" stroke-width="1px" x="72.75px" text-rendering="geometricPrecision" font-family="Noto Sans" fill="#ffffff" font-size="20px" y="128.25px" transform="" text-anchor="middle">Privately</text></svg>